<svg fill="#ffffff" height="200px" width="200px" version="1.1" id="Layer_1" xmlns="http://www.w3.org/2000/svg" xmlns:xlink="http://www.w3.org/1999/xlink" viewBox="0 0 368.373 368.373" xml:space="preserve" stroke="#ffffff"><g id="SVGRepo_bgCarrier" stroke-width="0"></g><g id="SVGRepo_tracerCarrier" stroke-linecap="round" stroke-linejoin="round"></g><g id="SVGRepo_iconCarrier"> <g id="XMLID_106_"> <path id="XMLID_107_" d="M263.373,136.936c-34.488,0-65.144,16.716-84.297,42.469c-7.763-1.627-15.694-2.469-23.703-2.469 c-8.643,0-17.063,0.965-25.165,2.781c-14.256-13.145-32.943-20.532-52.585-20.532C34.822,159.186,0,194.007,0,236.809 c0,8.284,6.716,15,15,15h32.602c-4.669,12.5-7.229,26.02-7.229,40.128c0,8.284,6.716,15,15,15h125.596 c19.246,24.348,49.031,40,82.404,40c57.897,0,105-47.103,105-105S321.27,136.936,263.373,136.936z M32.42,221.809 c6.298-18.934,24.182-32.623,45.203-32.623c6.617,0,13.051,1.382,18.964,3.95c-12.484,7.456-23.442,17.209-32.29,28.673H32.42z M71.698,276.936c7.105-39.739,41.923-70,83.675-70c2.966,0,5.914,0.164,8.841,0.467c-3.779,10.82-5.841,22.439-5.841,34.533 c0,12.268,2.122,24.047,6.006,35H71.698z M263.373,316.936c-41.355,0-75-33.645-75-75s33.645-75,75-75s75,33.645,75,75 S304.728,316.936,263.373,316.936z"></path> <path id="XMLID_169_" d="M295.192,210.117c-5.857-5.857-15.355-5.857-21.213,0l-10.607,10.606l-10.606-10.606 c-5.857-5.857-15.355-5.857-21.213,0c-5.858,5.857-5.858,15.355,0,21.213l10.606,10.606l-10.606,10.606 c-5.858,5.857-5.858,15.356,0,21.213c2.929,2.929,6.768,4.394,10.606,4.394c3.839,0,7.678-1.465,10.606-4.394l10.606-10.606 l10.607,10.606c2.929,2.929,6.767,4.394,10.606,4.394c3.839,0,7.678-1.465,10.607-4.394c5.858-5.857,5.858-15.355,0-21.213 l-10.607-10.606l10.607-10.606C301.05,225.473,301.05,215.975,295.192,210.117z"></path> <path id="XMLID_197_" d="M77.623,129.186c9.942,0,19.137-3.247,26.593-8.728c11.382,16.006,30.064,26.479,51.157,26.479 c34.601,0,62.75-28.149,62.75-62.749c0-34.601-28.149-62.751-62.75-62.751c-21.093,0-39.773,10.472-51.156,26.478 c-7.456-5.482-16.651-8.729-26.594-8.729c-24.813,0-45,20.188-45,45.001C32.623,108.999,52.81,129.186,77.623,129.186z M155.373,51.436c18.059,0,32.75,14.692,32.75,32.751c0,18.058-14.691,32.749-32.75,32.749s-32.75-14.691-32.75-32.749 C122.623,66.129,137.314,51.436,155.373,51.436z M77.623,69.185c8.271,0,15,6.729,15,15.001c0,8.271-6.729,14.999-15,14.999 s-15-6.729-15-14.999C62.623,75.915,69.352,69.185,77.623,69.185z"></path> </g> </g></svg>